<svg width="43" height="43" viewBox="0 0 43 43" fill="none" xmlns="http://www.w3.org/2000/svg">
<path d="M37.5255 11.4882L27.0137 22L37.5255 32.5118C37.8304 32.8062 38.0735 33.1585 38.2408 33.5479C38.4081 33.9374 38.4962 34.3563 38.4999 34.7801C38.5036 35.204 38.4228 35.6243 38.2623 36.0166C38.1018 36.4089 37.8648 36.7653 37.565 37.065C37.2653 37.3648 36.9089 37.6018 36.5166 37.7623C36.1243 37.9228 35.704 38.0036 35.2801 37.9999C34.8563 37.9962 34.4374 37.9081 34.0479 37.7408C33.6585 37.5735 33.3062 37.3304 33.0118 37.0255L22.5 26.5137L11.9882 37.0255C11.6938 37.3304 11.3415 37.5735 10.9521 37.7408C10.5626 37.9081 10.1437 37.9962 9.71989 37.9999C9.29604 38.0036 8.8757 37.9228 8.48339 37.7623C8.09109 37.6018 7.73468 37.3648 7.43496 37.065C7.13524 36.7653 6.89821 36.4089 6.73771 36.0166C6.5772 35.6243 6.49644 35.204 6.50012 34.7801C6.5038 34.3563 6.59186 33.9374 6.75916 33.5479C6.92646 33.1585 7.16964 32.8062 7.47453 32.5118L17.9863 22L7.47453 11.4882C7.16964 11.1938 6.92646 10.8415 6.75916 10.4521C6.59186 10.0626 6.5038 9.64374 6.50012 9.21989C6.49644 8.79604 6.5772 8.3757 6.73771 7.98339C6.89821 7.59109 7.13524 7.23468 7.43496 6.93496C7.73468 6.63524 8.09109 6.39821 8.48339 6.23771C8.8757 6.0772 9.29604 5.99644 9.71989 6.00012C10.1437 6.0038 10.5626 6.09186 10.9521 6.25916C11.3415 6.42646 11.6938 6.66964 11.9882 6.97453L22.5 17.4863L33.0118 6.97453C33.3062 6.66964 33.6585 6.42646 34.0479 6.25916C34.4374 6.09186 34.8563 6.0038 35.2801 6.00012C35.704 5.99644 36.1243 6.0772 36.5166 6.23771C36.9089 6.39821 37.2653 6.63524 37.565 6.93496C37.8648 7.23468 38.1018 7.59109 38.2623 7.98339C38.4228 8.3757 38.5036 8.79604 38.4999 9.21989C38.4962 9.64374 38.4081 10.0626 38.2408 10.4521C38.0735 10.8415 37.8304 11.1938 37.5255 11.4882Z" fill="#DC2626"/>
</svg>
