<svg width="180" height="45" viewBox="0 0 180 45" fill="none" xmlns="http://www.w3.org/2000/svg">
<path d="M176 45H5.25H3V44.3023H2.25V42.907H1.5V41.8605H0.75V41.1628V40.1163H0V36.6279H0.5V35.9302H1.25V33.4884H0.75V31.3953H2.25V32.4419H3V28.9535H4V27.907H6.25V27.2093H8.5V25.814H10.25V27.2093H11.5V28.9535H9.5V30H6.75V31.0465H5.25V32.4419H4.5V34.5349H3.75V35.9302H5.75V34.5349H7V36.2791H7.75V34.5349H8.5H23.25V35.5814H24.75V36.6279H28.75V35.5814H30.25V34.5349H32V35.5814H34.25V34.5349H35V33.4884H35.75H43.5V32.093H45.75V30.6977H47.5V32.093H49.25V31.0465H50.5V30H51.25V31.0465H52.25V27.907H53.25V26.8605H54.25V23.7209H55V24.7674H55.75V25.4651H56.5V28.9535H57.5V27.907H58.5V25.4651H59.25V21.9767H59.75V19.5349H61.5V21.9767H62.25V25.1163H63V28.9535H67L66.75 11.5116H64.5V10.4651H63.75V9.4186H66H67V6.97674H67.75V15H68.25V17.093H68.75H70.25V15H72V16.0465H73V17.7907H74V22.6744H74.5V24.0698H75.5V24.7674H76.25V25.4651H77V23.3721H77.75H78.5V26.8605H80.75V27.907H81.75V32.4419H82.5V26.8605H84.25V17.093H85V16.0465H86.5V15H88.75V13.6047H90.25V0H92V10.4651H93.5V6.97674H94.25V5.23256H95.75V6.97674H96.75V10.4651H98V12.907H98.75V15.3488H96.25V17.7907H97.25V17.093H98.75V17.7907V20.5814H96.75V23.3721H98.75V24.7674H100.5V23.3721V20.5814H101.25V18.8372H102.5V22.3256H105.25V23.3721H107.5V26.8605H109.25V28.9535H107.5V31.7442H108.5V34.186H110.25V30.3488H112.5V28.9535H114.75V30.3488H118.75V31.7442H128.5L129.75 33.1395H133L135.75 35.2326H168.75L172.75 33.1395H180L176 41.5116V45Z" fill="#E5E7EB"/>
</svg>
