<svg width="225" height="45" viewBox="0 0 225 45" fill="none" xmlns="http://www.w3.org/2000/svg">
<path d="M215.661 45H6.71206H6.42023V43.2597H4.66926V42.5138H2.91829V42.0166H2.33463V41.2707H1.16732V40.5249H0V38.5359H1.16732V37.0442H4.0856V34.558H2.33463V32.5691H44.9416V31.8232H48.4436V32.5691H49.0272V33.3149H50.1945V32.5691H52.2374V33.3149H53.6965V32.5691H54.8638V31.0773H54.2802V30.3315H52.821V29.337H54.2802V27.8453H55.7393V26.3536H54.8638V24.8619H55.7393V21.8785H54.2802V21.1326H52.821V20.3867H54.2802V19.1436H55.7393V17.6519H60.1167V14.6685H58.6576V13.9227H56.9066V12.1823H58.6576V11.4365H60.1167V2.98343H55.7393V0H62.1595V9.69613H63.9105V11.4365H65.9533V13.9227H66.8288V15.663H65.9533V16.4088H65.3696H63.9105V15.663H63.035V17.9006H66.8288V18.6464H63.9105V21.1326H65.9533V23.3702H63.9105V25.6077H65.3696V29.337H66.8288V25.6077H67.4124V24.8619H70.0389V25.8564H70.9144V27.3481H74.1245V24.8619H72.0817V23.3702H72.9572V22.6243H74.1245V21.8785H75.5837V22.6243H77.6265V16.1602H78.5019V13.9227H77.3346V13.1768H82.2957V15.663H81.1284V16.6575H82.2957V22.6243H93.0934V25.6077H91.9261V27.0994H93.0934V27.8453H95.7198V26.3536H100.389V27.3481H103.891V27.8453H105.058V32.5691H105.934V33.3149H106.809V30.0829H107.685V29.5856H108.56V28.5912H117.315V29.5856H118.482V30.3315H119.358V31.8232H124.903V32.5691H125.778V33.3149H126.654V32.3204H127.529V31.8232H129.572V32.5691H130.156V33.3149H133.658V32.5691H135.7V33.3149H139.494V32.3204H137.451V31.0773H144.747V31.5746H146.498V31.0773H147.374V31.8232H148.249V33.3149H150.292V32.3204H151.167V31.8232H152.043V31.0773H161.089V31.8232L225 32.0718V35.0552H223.833V35.5525H222.957V36.2983H222.082V37.0442H220.914V38.0387H220.331V38.7845H218.288V41.0221H217.412V43.5083H216.537H215.661V45Z" fill="#E5E7EB"/>
</svg>
