<svg width="135" height="45" viewBox="0 0 135 45" fill="none" xmlns="http://www.w3.org/2000/svg">
<path d="M134.442 45H0.743802V43.8559H1.8595V42.7119H1.4876V41.9492H0.743802V40.4237H0V36.6102H1.8595V39.2797H2.78926V36.9915H5.95041V39.2797L16.3636 38.8983V35.8475H14.5041V33.178H16.9215V31.6525H20.6405V35.4661H21.1983V36.6102H19.5248V38.8983H21.9421V31.6525H24.3595V33.178H25.1033V32.0339H26.0331V29.7458H24.9174V26.6949H26.0331V25.9322H26.5909V24.7881H30.4959V27.4576H31.0537V29.7458H30.3099V32.0339H33.4711V28.9831H32.3554V26.6949H32.9132H34.9587V28.6017H37.376V27.4576H39.4215V29.7458H41.095V28.2203H42.2107V26.6949H43.6983V28.2203H44.4422V31.6525H45.3719V36.6102H44.6281V38.8983H45V40.0424H46.3017V37.7542H47.0455V36.6102H48.5331V32.0339H49.0909V29.7458H48.5331V24.7881H49.0909V22.1186H50.3926V24.0254H51.6942V27.4576H50.3926V29.7458H51.5083V32.0339H52.0661V29.7458H54.6694V31.6525H55.7851V29.7458H56.9008V24.7881H56.343V23.6441H55.9711V11.4407H56.7149V10.678H58.3884V15.6356H59.1322V24.0254H60.4339V28.6017H61.3636V29.3644H61.9215V32.0339H65.6405V30.1271H63.781V28.2203H65.6405V27.0763H66.7562V28.6017H72.3347V30.8898H69.1736V32.0339H74.7521V21.3559H74.1942V20.2119H73.6364V7.24576H74.1942V6.1017H76.9835V7.24576H77.7273V24.0254H78.2851V28.6017H79.4008V32.0339H82.9339V29.7458H84.0496V32.0339H85.3512V29.7458H86.095V28.2203H85.3512V25.9322H83.8636V27.4576H82.9339V17.9237H82.1901V14.1102H82.9339V15.6356H84.4215V14.1102H83.8636V11.822H86.4669V6.48305H87.0248V3.81356H86.095V0H88.6983V1.52542H89.4421V3.81356H90.186V11.822H93.5331V16.7797H95.5785V17.9237H96.1364V19.0678H96.6942V24.0254H97.9959V25.1695H98.5537V19.0678H102.087V20.2119H103.202V21.3559H103.76V25.9322H104.318V28.6017H104.876V32.0339H107.851V29.7458H107.293H106.55V28.2203H106.178V27.0763H107.293V25.9322H106.736V24.4068H106.178V23.6441H110.64V26.3136H112.5V32.0339H119.38V30.8898H119.938V29.7458H135V34.322H134.442V41.5678H133.884V42.7119H133.326V43.8559H134.442V45Z" fill="#E5E7EB"/>
</svg>
