<svg width="90" height="45" viewBox="0 0 90 45" fill="none" xmlns="http://www.w3.org/2000/svg">
<path d="M58.5577 45H9.23077H8.94231V43.7266H7.21154V42.8775H5.48077V41.1794H4.32692V39.9058H3.46154V37.3586H2.88462V35.6605H2.01923V33.1133H0.865385V31.8398H0V28.019H6.34615V29.2926H7.78846V30.5662H8.36538H10.0962V28.4435H10.9615V26.7454H13.2692V28.019H14.7115V30.5662H18.1731V29.7171H19.6154V23.3491H23.3654V25.4718H25.0962V28.019H23.6538V29.7171H27.4038V17.4057H28.5577V15.7076H31.4423V16.9812H32.5962V18.2548H34.0385V16.9812H36.0577V18.6793H37.5V13.585H36.6346V12.3114H35.7692V10.1887H37.2115V0H39.5192V22.5001H43.5577V21.651H44.4231V19.9529H45.5769V17.4057H44.7115V13.1604H43.8462V11.8868V10.6132H47.5962V22.5001H49.9038V19.5284H51.9231V21.2265H53.0769V22.5001H53.9423V27.5944H55.0962V30.5662H54.2308V31.8396L60.2885 31.8398V28.0188H58.2692V25.2678H59.1346V24.1982H63.1731V26.7454H62.0192V31.8398H66.3462V29.2924H67.5V28.0188H69.2308V31.8396H71.8269V26.7454H70.6731V25.2678H71.5385V22.9246H72.6923V25.2678H75.5769V28.0188H76.1538V30.566H75.2885V32.2641H77.3077V30.566H78.4615V31.8396H79.3269V28.8679H80.1923V27.5943H83.0769V28.8679H86.25V30.566H87.6923V29.2924H88.5577V28.0188H90V31.8396H89.1346V37.3585H86.5385V39.9056H87.9808V45H85.3846V39.9056H84.2308V37.3585H83.6538V39.0566H83.0769V39.9056H78.4615V41.1792H77.3077V42.0283H74.4231V43.7264H58.5577V45Z" fill="#E5E7EB"/>
</svg>
