<svg width="135" height="45" viewBox="0 0 135 45" fill="none" xmlns="http://www.w3.org/2000/svg">
<path d="M116.898 43.1119H30.6818V42.1678H25.1591V40.9091H18.4091V39.965H16.5682H14.4205V39.021H11.6591V38.3916H9.81818V40.9091H8.59091V43.1119H7.67045V45H3.98864V40.9091H3.06818V39.021H2.14773V35.2448H0.920455V34.3007H0V33.042H0.920455V32.0979H2.14773V27.3776H3.06818V26.4336H3.98864V22.6573H7.67045V23.6014H8.59091V26.4336H9.20455V27.3776H10.4318V29.2657H14.4205V28.3217H22.0909V27.3776H27.9205V26.4336H36.2045V25.1748H37.4318V24.2308H38.3523V23.2867H39.5795V22.3427H90.8182V18.5664H91.7386V14.7902H92.9659V11.6434H96.6477V4.09091H98.4886V11.6434H100.33V0H101.557V11.6434H102.477V10.6993H104.318V11.6434H105.239V12.5874H106.159V23.6014H114.75V24.5455H123.341V25.4895H127.33V26.4336H129.17V27.3776H131.318V28.3217H133.159V29.5804H133.773V30.2098H135V36.1888H133.773V37.1329H132.852V38.3916H131.932V39.021H131.011V40.2797H127.33V40.9091H123.648V42.1678H116.898V43.1119Z" fill="#E5E7EB"/>
</svg>
