<svg width="64" height="64" viewBox="0 0 64 64" fill="none" xmlns="http://www.w3.org/2000/svg">
<path d="M12 51C12 42.1634 19.1634 35 28 35H36C44.8366 35 52 42.1634 52 51C52 55.4183 48.4183 59 44 59H20C15.5817 59 12 55.4183 12 51Z" fill="white"/>
<path fill-rule="evenodd" clip-rule="evenodd" d="M34 7C34 7.74028 33.5978 8.38663 33 8.73244V11H38C41.7277 11 44.8599 13.5495 45.748 17H46C48.2091 17 50 18.7909 50 21C50 23.2091 48.2091 25 46 25H45.748C44.8599 28.4505 41.7277 31 38 31H26C22.2723 31 19.1401 28.4505 18.252 25H18C15.7909 25 14 23.2091 14 21C14 18.7909 15.7909 17 18 17H18.252C19.1401 13.5495 22.2723 11 26 11H31V8.73244C30.4022 8.38663 30 7.74028 30 7C30 5.89543 30.8954 5 32 5C33.1046 5 34 5.89543 34 7ZM28 15C24.134 15 21 18.134 21 22C21 25.866 24.134 29 28 29H36C39.866 29 43 25.866 43 22C43 18.134 39.866 15 36 15H28Z" fill="white"/>
<circle cx="27" cy="20" r="2" fill="white"/>
<circle cx="37" cy="20" r="2" fill="white"/>
<path d="M29 24.6C29 24.2686 29.2686 24 29.6 24H34.4C34.7314 24 35 24.2686 35 24.6C35 25.9255 33.9255 27 32.6 27H31.4C30.0745 27 29 25.9255 29 24.6Z" fill="white"/>
</svg>
