<svg width="206" height="206" viewBox="0 0 206 206" fill="none" xmlns="http://www.w3.org/2000/svg">
<g clip-path="url(#clip0_176_19)">
<path d="M125.608 40.0102C123.513 37.9454 120.685 36.7972 117.744 36.8181C114.803 36.839 111.99 38.0274 109.926 40.1217L39.8572 111.194C37.7924 113.288 36.6441 116.117 36.665 119.058C36.686 121.999 37.8743 124.811 39.9687 126.876L79.4531 165.803C81.5475 167.868 84.3764 169.016 87.3174 168.995C90.2584 168.974 93.0706 167.786 95.1354 165.691L165.204 94.6194C167.269 92.525 168.417 89.6961 168.396 86.7551C168.375 83.8141 167.187 81.0019 165.092 78.9371L125.608 40.0102ZM87.2385 157.906L47.7541 118.979L117.822 47.9071L127.694 57.6388L125.775 63.5336L141.569 79.1044L147.436 77.1023L157.307 86.834L87.2385 157.906Z" fill="#E0FFFF"/>
</g>
<path d="M177.784 105.819C178.046 104.183 176.933 102.644 175.297 102.382C173.661 102.12 172.122 103.234 171.86 104.87L177.784 105.819ZM99.5049 176.459C98.5055 177.781 98.7667 179.662 100.088 180.662L121.624 196.947C122.946 197.946 124.827 197.685 125.826 196.364C126.826 195.042 126.564 193.161 125.243 192.161L106.1 177.685L120.576 158.543C121.575 157.221 121.314 155.34 119.993 154.34C118.671 153.341 116.79 153.602 115.79 154.924L99.5049 176.459ZM171.86 104.87C167.817 130.097 161.605 145.883 151.037 156.249C140.475 166.608 125.086 172.021 101.485 175.297L102.31 181.24C126.263 177.915 143.263 172.278 155.239 160.532C167.208 148.792 173.682 131.418 177.784 105.819L171.86 104.87Z" fill="#E0FFFF"/>
<path d="M26.4071 100.8C26.4865 102.455 27.8924 103.732 29.5474 103.653C31.2023 103.573 32.4796 102.167 32.4002 100.512L26.4071 100.8ZM106.446 32.412C107.745 31.3835 107.965 29.4968 106.936 28.1977L90.1768 7.02879C89.1484 5.72975 87.2616 5.5104 85.9626 6.53883C84.6635 7.56727 84.4442 9.45406 85.4726 10.7531L100.37 29.5699L81.553 44.4671C80.254 45.4956 80.0346 47.3824 81.063 48.6814C82.0915 49.9804 83.9783 50.1998 85.2773 49.1713L106.446 32.412ZM32.4002 100.512C31.1792 75.05 44.0853 57.7027 59.9825 46.8763C67.955 41.4468 76.6474 37.6905 84.5885 35.4418C92.5754 33.1802 99.5983 32.5004 104.238 33.0398L104.931 27.0799C99.2526 26.4198 91.3986 27.2776 82.9538 29.6688C74.4632 32.0731 65.1691 36.0849 56.6052 41.9171C39.4294 53.6142 25.0627 72.7645 26.4071 100.8L32.4002 100.512Z" fill="#E0FFFF"/>
<defs>
<clipPath id="clip0_176_19">
<rect width="133.072" height="133.072" fill="white" transform="translate(101.861 8.81299) rotate(44.5926)"/>
</clipPath>
</defs>
</svg>
